<?xml version="1.0" standalone="no"?>
<!DOCTYPE svg PUBLIC "-//W3C//DTD SVG 20010904//EN"
 "http://www.w3.org/TR/2001/REC-SVG-20010904/DTD/svg10.dtd">
<svg version="1.0" xmlns="http://www.w3.org/2000/svg"
 width="760.000000pt" height="760.000000pt" viewBox="0 0 760.000000 760.000000"
 preserveAspectRatio="xMidYMid meet">
<metadata>
Created by potrace 1.14, written by Peter Selinger 2001-2017
</metadata>
<g transform="translate(0.000000,760.000000) scale(0.100000,-0.100000)"
fill="#000000" stroke="none">
<path d="M4683 5993 c-10 -4 -13 -504 -13 -2379 l0 -2375 682 4 c376 3 692 7
703 10 11 2 52 8 90 12 39 4 79 9 90 11 10 2 37 6 60 9 22 3 48 8 57 11 9 3
25 7 35 9 336 68 655 246 828 460 41 50 105 143 105 151 0 3 9 19 21 35 11 16
17 29 13 29 -3 0 -2 6 3 13 18 22 62 150 82 237 28 124 34 170 36 318 6 432
-180 824 -500 1053 -55 39 -147 94 -155 91 -3 0 -16 6 -30 15 -14 9 -67 31
-117 48 l-93 31 38 30 c289 225 424 526 416 932 -1 75 -5 155 -8 177 -21 126
-30 167 -53 240 -153 487 -592 770 -1278 823 -110 9 -992 13 -1012 5z m1062
-494 c49 -5 105 -11 125 -14 19 -4 49 -8 66 -10 55 -8 197 -56 256 -88 137
-73 236 -199 281 -357 53 -189 49 -477 -11 -667 -43 -136 -169 -279 -303 -343
-94 -45 -240 -85 -345 -95 -38 -4 -80 -9 -94 -11 -14 -3 -136 -7 -272 -10
l-248 -5 0 53 c-1 95 -1 1472 -1 1516 l1 43 228 -2 c125 -1 267 -6 317 -10z
m290 -2063 c22 -4 72 -11 110 -17 214 -33 436 -121 549 -219 136 -117 209
-245 243 -424 22 -113 13 -332 -17 -436 -82 -281 -301 -471 -632 -550 -194
-46 -268 -52 -685 -57 l-403 -5 0 23 c-1 42 -1 1592 -1 1647 l1 54 398 -5
c218 -3 415 -8 437 -11z"/>
<path d="M4463 5963 c-10 -11 -52 -57 -93 -103 -41 -47 -151 -168 -244 -270
-93 -102 -192 -210 -220 -241 -139 -152 -233 -255 -256 -279 -55 -60 -191
-208 -208 -227 -14 -17 -128 -142 -211 -232 -12 -14 -54 -60 -91 -101 -37 -41
-81 -89 -96 -106 -26 -27 -124 -135 -259 -284 -27 -30 -59 -64 -70 -75 -11
-11 -51 -56 -90 -100 -38 -44 -75 -84 -81 -90 -6 -5 -38 -39 -70 -75 -79 -88
-235 -260 -254 -280 -64 -69 -127 -139 -200 -220 -47 -52 -92 -101 -100 -110
-8 -8 -78 -85 -155 -170 -77 -85 -147 -162 -155 -170 -9 -8 -85 -91 -170 -185
-85 -93 -159 -175 -165 -181 -5 -6 -46 -51 -90 -99 -44 -49 -91 -101 -105
-116 -14 -15 -59 -64 -100 -109 -41 -46 -86 -95 -100 -110 -14 -15 -61 -67
-105 -115 -44 -48 -91 -100 -105 -115 -14 -15 -63 -69 -110 -120 -47 -52 -106
-117 -132 -144 -25 -28 -55 -61 -65 -72 -10 -12 -54 -61 -98 -109 -44 -48 -84
-93 -88 -101 -7 -12 35 -14 276 -14 l285 0 32 38 c18 20 68 75 110 122 42 47
94 105 116 130 21 25 44 50 49 56 6 6 44 48 85 94 41 46 84 93 95 105 11 13
47 53 80 91 33 37 67 75 75 84 8 9 53 59 100 111 47 52 89 99 95 105 54 59
151 169 166 188 10 13 33 39 51 57 18 19 48 51 66 72 l32 37 123 0 c67 1 277
1 467 1 190 0 594 -1 898 -1 l554 0 -7 -417 c-3 -230 -8 -520 -10 -646 l-5
-227 293 0 293 0 -3 2366 c-1 1302 -4 2369 -7 2371 -2 3 -13 -4 -23 -14z
m-518 -1850 c-10 -951 -12 -1104 -18 -1109 -4 -4 -1367 -7 -1591 -4 -20 0 -17
5 122 157 41 46 83 93 94 105 11 13 52 59 91 102 40 44 80 89 90 100 26 30
202 226 252 282 6 6 42 46 80 89 39 43 84 93 100 110 25 27 82 91 165 185 8 9
49 55 91 101 42 46 140 156 219 244 79 88 175 195 214 238 39 43 73 83 74 88
2 5 8 9 14 9 7 0 8 -216 3 -697z"/>
</g>
</svg>
